<svg width="58" height="24" viewBox="0 0 58 24" fill="none" xmlns="http://www.w3.org/2000/svg">
<path d="M20.016 11.016V12.985H7.82801L13.406 18.61L12 20.016L3.98401 12L12 3.984L13.406 5.39L7.82801 11.015H20.016V11.016Z" fill="black"/>
<path d="M25.2378 17V6.33594H28.7241C29.8813 6.33594 30.7505 6.5752 31.3315 7.05371C31.9175 7.53223 32.2104 8.24023 32.2104 9.17773C32.2104 9.67578 32.0688 10.1177 31.7856 10.5034C31.5024 10.8843 31.1167 11.1797 30.6284 11.3896C31.2046 11.5508 31.6587 11.8584 31.9907 12.3125C32.3276 12.7617 32.4961 13.2988 32.4961 13.9238C32.4961 14.8809 32.186 15.6328 31.5659 16.1797C30.9458 16.7266 30.0693 17 28.9365 17H25.2378ZM26.644 12.0122V15.8501H28.9658C29.6201 15.8501 30.1353 15.6816 30.5112 15.3447C30.8921 15.0029 31.0825 14.5342 31.0825 13.9385C31.0825 12.6543 30.3843 12.0122 28.9878 12.0122H26.644ZM26.644 10.8843H28.7681C29.3833 10.8843 29.874 10.7305 30.2402 10.4229C30.6113 10.1152 30.7969 9.69775 30.7969 9.17041C30.7969 8.58447 30.626 8.15967 30.2842 7.896C29.9424 7.62744 29.4224 7.49316 28.7241 7.49316H26.644V10.8843ZM39.2637 17C39.1855 16.8438 39.1221 16.5654 39.0732 16.165C38.4434 16.8193 37.6914 17.1465 36.8174 17.1465C36.0361 17.1465 35.394 16.9268 34.8911 16.4873C34.3931 16.043 34.144 15.4814 34.144 14.8027C34.144 13.9775 34.4565 13.3379 35.0815 12.8838C35.7114 12.4248 36.5952 12.1953 37.7329 12.1953H39.0513V11.5728C39.0513 11.0991 38.9097 10.7231 38.6265 10.4448C38.3433 10.1616 37.9258 10.02 37.374 10.02C36.8906 10.02 36.4854 10.1421 36.1582 10.3862C35.8311 10.6304 35.6675 10.9258 35.6675 11.2725H34.3052C34.3052 10.877 34.4443 10.4961 34.7227 10.1299C35.0059 9.75879 35.3867 9.46582 35.8652 9.25098C36.3486 9.03613 36.8784 8.92871 37.4546 8.92871C38.3677 8.92871 39.083 9.1582 39.6006 9.61719C40.1182 10.0713 40.3867 10.6987 40.4062 11.4995V15.147C40.4062 15.8745 40.499 16.4531 40.6846 16.8828V17H39.2637ZM37.0151 15.9673C37.4399 15.9673 37.8428 15.8574 38.2236 15.6377C38.6045 15.418 38.8804 15.1323 39.0513 14.7808V13.1548H37.9893C36.3291 13.1548 35.499 13.6406 35.499 14.6123C35.499 15.0371 35.6406 15.3691 35.9238 15.6084C36.207 15.8477 36.5708 15.9673 37.0151 15.9673ZM45.709 16.0405C46.1924 16.0405 46.6147 15.894 46.9761 15.6011C47.3374 15.3081 47.5376 14.9419 47.5767 14.5024H48.8584C48.834 14.9565 48.6777 15.3887 48.3896 15.7988C48.1016 16.209 47.7158 16.5361 47.2324 16.7803C46.7539 17.0244 46.2461 17.1465 45.709 17.1465C44.6299 17.1465 43.7705 16.7876 43.1309 16.0698C42.4961 15.3472 42.1787 14.3608 42.1787 13.1108V12.8838C42.1787 12.1123 42.3203 11.4263 42.6035 10.8257C42.8867 10.2251 43.292 9.75879 43.8193 9.42676C44.3516 9.09473 44.979 8.92871 45.7017 8.92871C46.5903 8.92871 47.3276 9.19482 47.9136 9.72705C48.5044 10.2593 48.8193 10.9502 48.8584 11.7998H47.5767C47.5376 11.2871 47.3423 10.8672 46.9907 10.54C46.644 10.208 46.2144 10.042 45.7017 10.042C45.0132 10.042 44.4785 10.291 44.0977 10.7891C43.7217 11.2822 43.5337 11.9976 43.5337 12.9351V13.1914C43.5337 14.1045 43.7217 14.8076 44.0977 15.3008C44.4736 15.7939 45.0107 16.0405 45.709 16.0405ZM52.5938 13.3306L51.7441 14.2168V17H50.3892V5.75H51.7441V12.5542L52.4692 11.6826L54.9375 9.0752H56.5854L53.502 12.3857L56.9443 17H55.355L52.5938 13.3306Z" fill="black"/>
</svg>
